<?xml version="1.0" encoding="UTF-8"?>
<svg id="a" data-name="Layer 1" xmlns="http://www.w3.org/2000/svg" viewBox="0 0 282.76 203.69">
  <defs>
    <style>
      .b {
        fill: #ee2726;
        stroke-width: 0px;
      }
    </style>
  </defs>
  <path class="b" d="M213.06,7.87c-.6.97-1.16,1.97-1.72,2.97-2.17,3.87-4.31,7.75-6.5,11.6-.49.87-1.1,1.67-1.72,2.46-.49.63-1.21.82-1.92.45-.72-.37-.93-1.09-.74-1.84.19-.76.45-1.51.77-2.23,1.23-2.74,2.45-5.49,3.75-8.19,1.21-2.51,2.53-4.97,3.8-7.45.35-.69.55-1.4-.25-1.88-.74-.44-1.38-.11-1.87.52-.35.45-.66.94-.96,1.42-2.76,4.51-5.51,9.04-8.28,13.54-.41.67-.87,1.31-1.38,1.91-.52.61-1.23.7-1.95.37-.79-.37-.93-1.08-.74-1.82.18-.68.49-1.34.79-1.99,2.36-5.14,5.48-9.88,7.93-14.97.25-.51.51-1.03.69-1.56.12-.35.03-.71-.29-.96-.4-.31-.82-.27-1.17.06-.47.44-.91.91-1.32,1.41-1.36,1.66-2.73,3.31-4.04,5.01-3.42,4.42-6.6,9.02-8.92,14.12-1.81,3.96-1.77,7.94,1.06,11.53.69.88.76,1.56.22,2.49-2.17,3.8-4.62,7.4-7.57,10.64-.31.34-.55.89-1.36.55.25-2.07.56-4.19.29-6.33-.18-1.44.02-2.83.4-4.23,2-7.42-.2-13.53-5.95-18.43-4.05-3.46-9.03-4.82-14.09-5.93-1.47-.32-2.95-.58-4.46-.55-1.14.02-1.37.27-.9,1.24,1.5,3.1,1.81,6.43,2.16,9.79.3,2.91.41,5.85,1.1,8.72,1.65,6.86,8.38,11.73,15.51,11.13.02-.27.07-.56.04-.84-.52-5.12-1.95-9.96-4.64-14.37-1.26-2.06-2.67-4.04-4.01-6.06-.26.04-.38-.1-.42-.32-.01-.05.06-.18.07-.17.21.04.37.15.43.37,0,0-.08.13-.08.13l.08-.13c1.27.27,2.07,1.23,2.93,2.06,1.49,1.44,2.84,3.03,3.98,4.77,2.84,4.3,4.91,8.88,5.05,14.15.06,2.31-.21,4.57-1.23,6.69-1.67,3.49-4.72,5.01-8.3,5.77-.84.18-1.69.31-2.5.57-.5.16-.82.59-.71,1.18.09.47.44.75.91.78,1.07.07,2.14.2,3.21.13,5.06-.31,9.35-2.49,13.13-5.73,4.32-3.7,8.01-7.96,10.93-12.86.8-1.34,1.69-1.91,3.29-1.63,3.31.56,6.01-.7,8.27-3.09,1.04-1.1,1.88-2.34,2.62-3.65,2.24-4.01,4-8.23,5.64-12.51,1-2.6,1.85-5.26,2.75-7.9.19-.55.32-1.17-.37-1.49-.65-.3-1.11.1-1.42.61Z"/>
  <path class="b" d="M97.89,183.64c1.2-1.35,1.08-4.25-.23-5.52-.81-.78-1.51-.71-2.08.24-.41.7-.48,1.48-.52,2.26-.06,1.05.11,2.1.43,2.71.58,1.1,1.58,1.23,2.4.31Z"/>
  <path class="b" d="M149.31,148.34c-5.15-3.59-11.03-5.34-17.16-6.38-1.58-.27-1.62-.28-1.53-1.85.29-5.29.36-10.58.23-15.88-.18-7.02-.71-13.99-1.97-20.91-.34-1.85-1.3-2.99-3.09-3.4-1.93-.45-3.81-.37-5.64.57-2.87,1.48-4.24,3.9-4.73,6.99-.74,4.71-2.39,9.12-4.61,13.32-.78,1.47-1.79,2.77-3.07,3.83-2.25,1.87-4.69,1.39-6.09-1.18-.55-1.01-.87-2.11-1.12-3.23-1.25-5.76-.46-11.39,1.11-16.96.82-2.9,1.97-5.68,3.74-8.16,1.37-1.92,3.11-3.34,5.44-3.95,2.68-.7,4.57.02,6.09,2.33.35.53.68,1.1,1.12,1.56,1.57,1.66,3.94,1.33,5.02-.68.65-1.23.97-2.58.81-3.94-.13-1.12.29-1.61,1.24-2.12,3.72-1.99,6.1-5.15,7.25-9.16.44-1.56,1.09-2.87,2.13-4.1,4.73-5.57,2.35-11.87-.9-15.13-.66-.66-1.37-1.27-2.31-1.51-.35-.09-.73-.14-.95.24-.17.3.06.54.25.75.19.21.42.39.63.59,3.42,3.18,3.36,7.31,1.76,10.83-.19.43-.38.94-1.01.91-.59-.42-.59-1.13-.88-1.69-1.63-3.03-3.88-5.11-7.56-5.12-2.91,0-5.79,1.9-6.74,4.49-.95,2.59-.03,5.48,2.4,7.44,1.5,1.21,3.26,1.75,5.15,1.91.76.06,1.52.08,2.46.13-.75,2.37-2.51,3.47-4.17,4.67-.84.6-1.45.55-2.25-.16-2.67-2.38-5.92-3.4-9.42-3.68-6.09-.48-11.14,1.86-15.14,6.22-8.4,9.16-11.37,20.11-10.03,32.33.15,1.33.1,2.51-.43,3.74-.71,1.65-1.5,3.25-2.51,4.73-.73,1.07-1.61,1.99-2.76,2.65-2.32,1.34-3.89.86-4.99-1.6-.89-1.99-1.1-4.13-1.25-6.28-.47-6.99.74-13.84,1.73-20.71.39-2.76,1.13-5.46,1.06-8.29-.1-3.9-2.12-6.23-5.89-6.65-1.43-.16-2.86.03-4.24.46-1.52.46-2.62,1.42-3.25,2.89-.68,1.59-1.13,3.25-1.35,4.95-.19,1.46-.69,2.76-1.51,3.96-1.26,1.84-2.62,3.6-4.26,5.09-1.2,1.09-2.45,2.14-4.09,2.7-.61-1.27-.58-2.59-.84-3.83-.98-4.77-2.6-9.19-6.05-12.81-4.79-5.04-14.3-7.39-21.25.43-3.03,3.42-5.16,7.37-6.9,11.55-.22.53-.25,1.22-1.16,1.55.05-.9.13-1.61.11-2.32-.09-4.29.14-8.59-.46-12.86-.18-1.28-.47-2.53-.97-3.73-.18-.45-.43-1.08-1.03-.9-1.29.37-2.55-.1-3.84.01-4.23.37-7.78,3.46-8.22,7.63-.49,4.63-1,9.25-1.15,13.9-.57,18.25-.38,36.48,1.5,54.67.73,7.05,1.48,14.08,2.79,21.05.26,1.41.74,2.75,1.16,4.12,1,3.26,4.27,3.94,6.46,5.85.1.08.28.12.41.1,1.31-.15,2.54.3,3.81.45,2.18.27,3.55-.96,3.61-3.18.02-.57-.02-1.15-.09-1.71-.65-5.18-1.35-10.35-1.96-15.54-1.2-10.23-2.18-20.48-2.56-30.79-.16-4.37-.27-8.73.51-13.06,1.12-6.27,2.48-12.49,4.56-18.52.91-2.65,1.98-5.22,3.55-7.55,1.17-1.74,2.54-3.29,4.4-4.31,1.9-1.04,3.54-.75,5.02.82,1.16,1.23,1.86,2.7,2.34,4.29.91,3.03,1.33,6.15,1.55,9.3.25,3.62.22,3.62-2.96,5.49-.92.55-1.84,1.11-2.77,1.65-2.75,1.61-5.03,3.76-7.12,6.14-2.53,2.89-3.94,6.29-4.45,10.06-.83,6.09,2.84,10.87,8.92,11.72,3.24.46,6.25-.15,9.09-1.78,5.11-2.94,8.57-7.24,10.7-12.7,2.02-5.18,3.2-10.53,3.43-16.08.05-1.35.5-2.27,1.61-3.03,1.65-1.14,3.18-2.43,4.79-3.62.35-.26.62-.87,1.39-.42-.08,1.57-.21,3.21-.24,4.85-.08,4.16.16,8.3.97,12.38.56,2.82,1.34,5.57,2.84,8.05,4.21,6.93,12.26,8.5,18.2,2.87,2.34-2.22,3.9-4.91,5.51-7.61.27-.45.31-1.15,1.12-1.19.42.72.82,1.48,1.29,2.19,3.12,4.68,7.62,6.56,13.08,6.08,3.21-.28,5.7-2.19,7.81-4.51,2.53-2.78,4.26-6.05,5.66-9.98.22.65.34.84.35,1.04.34,6.08.19,12.16-.24,18.23-.08,1.19-.77,1.32-1.68,1.48-4.45.74-8.87,1.69-13.07,3.37-11.81,4.73-21.43,11.96-26.88,23.88-2.38,5.2-3.44,10.62-2.49,16.3,1.71,10.21,10.12,19.16,22.58,18.25,7.97-.58,14.43-4.2,19.61-10.24,4.7-5.48,7.68-11.86,9.98-18.6,2.48-7.27,4.15-14.72,4.98-22.36.2-1.81.39-2.06,1.89-1.59,5.86,1.83,10.81,5.02,13.87,10.46,2.34,4.17,2.89,8.81,2.39,13.54-.45,4.24-1.34,8.36-4.63,11.49-.35.33-.75.75-.44,1.31.26.48.73.68,1.27.65,1.36-.07,2.72-.13,4.07-.25,2.33-.21,4.45-1.01,6.33-2.42,6.52-4.89,8.71-11.53,7.42-19.33-1.29-7.8-5.9-13.53-12.23-17.95ZM125.82,74.91c-1.39-.2-2.66-.67-3.72-1.57-1-.85-1.29-2.1-.77-3.07.48-.9,1.84-1.4,3.01-1.11,1.74.44,3.6,3.35,3.22,5.09-.24,1.09-1.11.57-1.73.66ZM4.59,113.89c-.16-.01-.32-.03-.48-.04-.09-.19-.24-.38-.26-.57-.89-7.49-1.17-14.96.59-22.37.13-.56.27-1.11.44-1.66q.53-1.77,2.85-1.88c-2.37,8.72-2.76,17.62-3.13,26.52ZM33.26,134.61c-.46.81-1.08,1.5-1.9,1.99-2.19,1.28-4.25.2-4.35-2.33-.08-2.05.51-3.95,1.56-5.7,1.94-3.19,4.81-5.34,8.46-7.5-.61,5.06-1.47,9.5-3.77,13.55ZM66.98,91.48c-1.21,3.15-1.57,6.5-2.48,9.71-.05.19-.19.39-.65.38-.69-1.05-.49-2.22-.49-3.34,0-2.58.46-5.1,1.46-7.49.24-.56.57-1.39,1.29-1.21.89.23,1.12,1.27.86,1.94ZM91.59,103.35c-.33.16-.41.1-.41-.11.15-8.56,4.02-14.93,11.34-19.25,1-.59,2.05-1.11,3.2.08-7.43,4.62-11.63,11.42-14.13,19.28ZM98.84,190.94c-2.92,2.25-6.15,3.61-9.93,3.3-4.19-.35-7.09-2.49-8.6-6.39-1.65-4.29-1.52-8.68-.46-13.08,1.54-6.38,5.15-11.48,10.17-15.5,6.72-5.39,14.42-8.66,23.05-9.57.21-.02.42-.07.64-.09,1.23-.07,1.34.04,1.29,1.29-.02.43-.08.85-.12,1.28-1.55,9.54-3.16,19.06-7.62,27.79-2.13,4.16-4.66,8.05-8.43,10.96ZM103.74,197.29c-.17-.06-.16-.16.01-.29,3.41-2.51,5.67-6.12,8.55-9.14,3.19-3.35,5.07-7.56,6.87-11.78.45-1.05.62-2.35,2.12-3.02-.77,10.91-9.52,21.86-17.55,24.23ZM159.58,173.29c-1.03,4.6-3.7,8.22-7.09,9.18,5.01-6.68,6.48-13.57,3.88-21.17,2.86,3.53,4.24,7.45,3.22,11.99Z"/>
  <path class="b" d="M70.76,77.8c5.62.71,11.72-5.04,11.25-10.66-.38-4.5-2.78-6.84-7.1-7.04-1.53-.07-3.01.19-4.44.64-4.39,1.37-6.93,5.42-6.85,8.45-.24,4.66,2.56,8.04,7.14,8.62ZM78.3,68.68c.25-.44.51-.97,1.1-.79.54.17.58.73.6,1.25.15,3.69-3,6.25-6.64,5.1,2.05-1.7,3.74-3.42,4.93-5.56Z"/>
  <path class="b" d="M89.06,177.09c-.83,1.12-1.35,2.36-1.27,3.78.04.68.33,1.26,1.06,1.45.7.19,1.28-.06,1.69-.63.63-.88,1.07-1.85,1.18-2.95.01-.21.03-.43.03-.64,0-.77-.21-1.45-1.02-1.69-.7-.21-1.26.14-1.67.69Z"/>
  <path class="b" d="M279.05,75.35c-1.34,1.19-2.7,2.36-4.37,3.07-5.49,2.33-11.12,2.35-16.84,1-.71-.17-.93-.57-.8-1.24.08-.42.14-.85.24-1.26,1.16-4.57,2.32-9.14,3.5-13.71.61-2.37.95-4.77.94-7.21-.01-1.66-.54-3.11-1.97-4.08-3.13-2.13-8.25-1.06-10.32,2.14-1.05,1.63-1.77,3.42-2.45,5.24-1.64,4.44-2.63,9.06-3.81,13.63-.41,1.6-.43,1.62-2.01.99-.27-.11-.52-.23-.79-.35-7.8-3.44-15.19-7.67-22.8-11.48-7.17-3.6-14.47-6.87-22.23-8.99-7.09-1.93-14.27-2.98-21.65-2.14-4.45.51-8.75,1.52-12.6,3.91-4.13,2.57-7.25,6.01-8.79,10.72-.75,2.28-.62,4.52.32,6.7.73,1.7,1.9,2,3.39.95.47-.33.92-.69,1.34-1.07,5.64-5.16,12.51-7.03,19.92-7.23,7.06-.19,13.92,1.05,20.73,2.98,7.38,2.1,14.5,4.86,21.56,7.83,5.8,2.43,11.53,5.05,17.43,7.23,1.05.39,2.56.22,3.03,1.29.48,1.08-.21,2.35-.47,3.53-1.94,8.88-3.61,17.83-4.13,26.91-.23,4-1.44,7.55-3.32,10.96-1.11,2.02-2.43,3.87-4.37,5.22-2.43,1.69-4.01,1.27-5.25-1.46-.73-1.59-.92-3.29-.93-5.02-.05-6.92,1.1-13.68,2.65-20.39.66-2.85,1.33-5.71,1.67-8.62.22-1.85-.03-3.61-1.65-4.84-3.17-2.4-8.37-1.38-10.37,2.03-.65,1.11-1.2,2.29-1.47,3.56-1.03,4.76-2.38,9.43-3.84,14.07-1.47,4.65-3.29,9.16-6.07,13.22-.69,1.01-1.43,1.97-2.45,2.67-1.84,1.26-3.39.82-4.34-1.24-.37-.79-.49-1.64-.59-2.49-.31-2.72-.17-5.43.21-8.13.94-6.67,2.72-13.16,4.4-19.67.41-1.59.85-3.18.93-4.84.15-3.12-1.29-5.24-4.26-6.15-4.52-1.39-8.68.56-9.84,4.97-.24.9-.48,1.79-.7,2.7-1.34,5.59-4.89,9.42-9.76,12.17-.39.22-.82.65-1.43.17-.12-.92-.24-1.91-.37-2.9-.52-3.8-1.71-7.37-3.6-10.71-3.27-5.74-12.59-10.22-19.4-3.71-.74.71-1.55.93-2.53.8-1.8-.24-3.38.36-4.87,1.31-1.77,1.13-3.27,2.54-4.53,4.22-1.65,2.2-2.72,4.7-3.75,7.21-3.55,8.6-4.08,17.33-.92,26.17,1.31,3.65,3.46,6.72,6.48,9.18,5.58,4.55,13.13,5.28,19.28,1.77,3.68-2.1,6.58-5.08,8.55-8.83,2.38-4.52,4.06-9.31,4.78-14.39.2-1.4.7-2.33,2.07-2.91,1.85-.78,3.45-2.03,5.05-3.23.43-.32.76-.88,1.53-.82.16.7-.02,1.38-.12,2.06-.23,1.63-.54,3.25-.69,4.88-.45,4.95-.34,9.87,1.36,14.63,2.84,7.96,11.71,10.5,18.34,5.29,2.59-2.04,4.37-4.69,6.01-7.48.55-.94.92-2,1.81-2.94.13,1.2.2,2.2.34,3.19.46,3.35,1.15,6.63,3.12,9.49,3.71,5.42,10.6,7.04,16.21,2.29,2.05-1.74,3.58-3.88,5.15-6.01.35-.47.49-1.22,1.39-1.25.36,2.79.93,5.52,1.9,8.13,1.89,5.09,5.38,8.68,10.65,10.04,6.45,1.66,11.66-.71,15.69-5.83,3.51-4.46,5.57-9.63,7.05-15.05.32-1.18.47-2.38.5-3.61.03-.91-.28-1.69-.91-2.33-1.16-1.16-2.32-.92-2.94.58-.19.46-.35.94-.53,1.41-1.54,4.16-3.04,8.34-5.43,12.11-1.04,1.63-2.16,3.22-3.8,4.32-2.55,1.69-5.24,1.11-6.85-1.47-.8-1.29-1.32-2.69-1.62-4.18-.92-4.62-.74-9.25-.31-13.9.82-8.85,2.49-17.56,4.31-26.24.34-1.61.62-3.23.94-4.84.45-2.24.46-2.26,2.62-1.87,2.41.43,4.83.62,7.27.56,5.16-.13,10.06-1.28,14.46-4.11,2.07-1.33,3.44-3.17,4.2-5.52.3-.93.27-1.83,0-2.74-.6-2.01-1.92-2.41-3.49-1.02ZM160.67,127.39c-1.39,1.45-3.07,2.31-5.03,2.63-3.1.5-5.89-.96-7.17-3.82-1-2.23-1.59-4.59-1.82-7.02-.46-4.82.22-9.56,1.34-14.23.18-.73.24-1.57,1.09-2.31,3.59,7.44,9.89,10.08,17.69,10.38-1.2,5.32-2.29,10.41-6.09,14.38ZM165.98,105.94c-4.25-.7-9.06-4.96-8.58-10.5,0-1.02.25-2.06.74-3.02.92-1.78,2.51-2.27,4.32-1.37,1.27.63,2.1,1.66,2.71,2.92,1.67,3.49,2.05,7.23,2.22,11.03.05,1.14-.65,1.07-1.41.94Z"/>
</svg>